<?xml version="1.0" standalone="no"?><!DOCTYPE svg PUBLIC "-//W3C//DTD SVG 1.1//EN" "http://www.w3.org/Graphics/SVG/1.1/DTD/svg11.dtd"><svg height="1024" node-id="1" sillyvg="true" template-height="1024" template-width="1024" version="1.1" viewBox="0 0 1024 1024" width="1024" xmlns="http://www.w3.org/2000/svg" xmlns:xlink="http://www.w3.org/1999/xlink"><defs node-id="41"><linearGradient gradientUnits="objectBoundingBox" id="linear-gradient" node-id="5" spreadMethod="pad" x1="0.5" x2="0.506" y1="0" y2="0.766"><stop offset="0" stop-color="#f8f8f8" stop-opacity="0.71"></stop><stop offset="1" stop-color="#e2e7f2" stop-opacity="0"></stop></linearGradient><linearGradient gradientUnits="objectBoundingBox" id="linear-gradient-2" node-id="8" spreadMethod="pad" x1="0.5" x2="0.517" y1="0" y2="0.855"><stop offset="0" stop-color="#f8f8f8"></stop><stop offset="1" stop-color="#e2e7f2" stop-opacity="0.071"></stop></linearGradient><linearGradient gradientUnits="objectBoundingBox" id="linear-gradient-3" node-id="11" spreadMethod="pad" x1="0.5" x2="0.5" y1="0" y2="0.522"><stop offset="0" stop-color="#f8f8f8"></stop><stop offset="1" stop-color="#f8f8f8" stop-opacity="0"></stop></linearGradient><linearGradient gradientUnits="objectBoundingBox" id="linear-gradient-4" node-id="14" spreadMethod="pad" x1="0.5" x2="0.5" y1="0" y2="1"><stop offset="0" stop-color="#eaeef2"></stop><stop offset="1" stop-color="#e1e6ed"></stop></linearGradient><linearGradient gradientUnits="objectBoundingBox" id="linear-gradient-5" node-id="17" spreadMethod="pad" x1="0.765" x2="0.338" y1="-0.019" y2="1.006"><stop offset="0" stop-color="#f8f8f8"></stop><stop offset="1" stop-color="#e2e7f2" stop-opacity="0"></stop></linearGradient><linearGradient gradientUnits="objectBoundingBox" id="linear-gradient-6" node-id="20" spreadMethod="pad" x1="0.7653618" x2="0.65030736" y1="-0.019008985" y2="0.8153854"><stop offset="0" stop-color="#f8f8f8"></stop><stop offset="1" stop-color="#e2e7f2" stop-opacity="0"></stop></linearGradient><linearGradient gradientUnits="objectBoundingBox" id="linearGradient1" node-id="79" spreadMethod="pad" x1="0.5" x2="0.5" y1="0" y2="1"><stop offset="0" stop-color="#f8f8f8"></stop><stop offset="1" stop-color="#e2e7f2"></stop></linearGradient><linearGradient gradientUnits="objectBoundingBox" id="linear-gradient-7" node-id="21" spreadMethod="pad" x1="0.50009024" x2="0.50009024" y1="0" y2="1.0001805"><stop offset="0" stop-color="#f8f8f8"></stop><stop offset="1" stop-color="#e2e7f2"></stop></linearGradient><linearGradient gradientUnits="objectBoundingBox" id="linear-gradient-9" node-id="24" spreadMethod="pad" x1="0.5" x2="0.5" y1="0" y2="1"><stop offset="0" stop-color="#f8f8f8"></stop><stop offset="1" stop-color="#e2e7f2" stop-opacity="0"></stop></linearGradient></defs><g node-id="97"><path d="M 0.00 0.00 L 1024.00 0.00 L 1024.00 1024.00 L 0.00 1024.00 Z" fill="#ffffff" fill-opacity="0" fill-rule="nonzero" group-id="1" id="矩形_322" node-id="26" stroke="none" target-height="1024" target-width="1024" target-x="0" target-y="0"></path></g><g node-id="98"><g node-id="99"><path d="M 92.78 779.08 C 92.78 779.08 55.57 618.59 89.31 591.12 C 123.04 563.66 156.97 623.51 156.97 623.51 C 156.97 623.51 114.28 478.00 164.49 463.88 C 214.71 449.76 248.93 596.32 248.93 596.32 C 248.93 596.32 235.99 501.69 283.77 492.60 C 331.55 483.52 384.30 666.07 384.30 666.07 Z" fill="url(#linear-gradient)" fill-rule="nonzero" group-id="2,3" id="路径_63" node-id="28" stroke="none" target-height="329.31918" target-width="328.7243" target-x="55.57402" target-y="449.7643"></path></g><g node-id="100"><path d="M 800.80 554.51 C 795.50 554.52 790.48 552.11 787.18 547.96 L 766.75 522.36 C 765.63 520.96 764.72 519.39 764.06 517.72 L 622.17 517.72 C 615.18 517.73 608.26 516.33 601.82 513.61 C 595.61 510.99 589.97 507.18 585.20 502.41 C 580.43 497.65 576.63 492.00 574.00 485.79 C 571.28 479.35 569.88 472.43 569.89 465.43 L 569.89 322.28 C 569.88 315.29 571.28 308.37 574.00 301.93 C 576.62 295.72 580.43 290.08 585.20 285.31 C 589.96 280.54 595.61 276.74 601.82 274.11 C 608.26 271.39 615.18 269.99 622.17 270.00 L 851.22 270.00 C 858.21 269.99 865.13 271.39 871.57 274.11 C 877.78 276.73 883.42 280.54 888.19 285.31 C 892.96 290.07 896.77 295.72 899.39 301.93 C 902.12 308.37 903.51 315.29 903.50 322.28 L 903.50 465.43 C 903.51 472.42 902.12 479.34 899.39 485.78 C 896.77 491.99 892.96 497.64 888.19 502.40 C 883.42 507.17 877.78 510.98 871.57 513.60 C 865.13 516.32 858.21 517.72 851.22 517.71 L 837.54 517.71 C 836.89 519.38 835.98 520.95 834.85 522.36 L 814.42 547.95 C 811.13 552.10 806.11 554.52 800.80 554.51 Z M 769.06 402.30 C 756.00 402.32 745.42 412.90 745.41 425.95 C 745.42 439.01 756.00 449.59 769.06 449.60 L 838.77 449.60 C 851.83 449.59 862.41 439.01 862.42 425.95 C 862.41 412.90 851.83 402.32 838.77 402.30 Z M 691.88 330.10 C 678.83 330.12 668.25 340.70 668.23 353.75 C 668.25 366.81 678.83 377.39 691.88 377.40 L 838.77 377.40 C 851.83 377.39 862.41 366.81 862.42 353.75 C 862.41 340.69 851.83 330.11 838.77 330.10 Z" fill="url(#linear-gradient-2)" fill-rule="nonzero" group-id="2,4" id="路径_65" node-id="29" stroke="none" target-height="284.53687" target-width="333.6353" target-x="569.87823" target-y="269.9878"></path></g><g node-id="101"><path d="M 1002.00 809.00 C 1002.00 844.80 950.38 879.14 858.48 904.46 C 766.59 929.78 641.96 944.00 512.00 944.00 C 382.04 944.00 257.41 929.78 165.52 904.46 C 73.62 879.14 22.00 844.80 22.00 809.00 C 22.00 773.20 73.62 738.86 165.52 713.54 C 257.41 688.22 382.04 674.00 512.00 674.00 C 641.96 674.00 766.59 688.22 858.48 713.54 C 950.38 738.86 1002.00 773.20 1002.00 809.00 Z" fill="url(#linear-gradient-3)" fill-rule="nonzero" group-id="2,5" id="椭圆_16" node-id="30" stroke="none" target-height="270" target-width="980" target-x="22" target-y="674"></path></g><g node-id="102"><path d="M 588.97 731.40 L 562.83 698.65 C 561.39 696.85 560.22 694.85 559.39 692.70 L 377.81 692.70 C 360.07 692.70 343.05 685.65 330.50 673.11 C 317.95 660.56 310.90 643.54 310.90 625.80 L 310.90 442.60 C 310.90 424.86 317.95 407.84 330.50 395.29 C 343.05 382.75 360.06 375.70 377.81 375.70 L 670.92 375.70 C 688.66 375.70 705.68 382.75 718.23 395.29 C 730.77 407.84 737.82 424.86 737.82 442.60 L 737.82 625.80 C 737.82 662.75 707.87 692.70 670.92 692.70 L 653.42 692.70 C 652.58 694.84 651.42 696.85 649.97 698.65 L 623.83 731.40 C 619.60 736.70 613.18 739.79 606.40 739.79 C 599.62 739.79 593.20 736.70 588.97 731.40 Z" fill="url(#linear-gradient-4)" fill-rule="nonzero" group-id="2,6" id="路径_66" node-id="31" stroke="none" target-height="364.09106" target-width="426.92032" target-x="310.9025" target-y="375.6974"></path></g><g node-id="103"><path d="M 804.83 676.92 C 835.87 660.41 818.56 641.40 834.50 636.15 C 850.43 630.89 860.90 627.21 863.70 613.85 C 867.50 632.20 879.49 642.61 867.49 664.57 C 855.49 686.53 868.21 710.70 849.06 726.62 C 829.90 742.55 794.72 734.01 794.72 734.01 C 794.72 734.01 773.78 693.43 804.83 676.92 Z" fill="url(#linear-gradient-5)" fill-rule="nonzero" group-id="2,7" id="路径_61" node-id="32" stroke="none" target-height="128.70013" target-width="105.70526" target-x="773.78345" target-y="613.8474"></path></g><g node-id="104"><path d="M 878.81 695.16 C 902.87 694.32 897.93 677.42 909.31 678.97 C 920.69 680.52 928.24 681.40 933.97 674.02 C 930.80 686.45 935.05 696.46 921.08 706.37 C 907.10 716.28 907.67 734.97 891.10 739.02 C 874.54 743.07 855.45 727.25 855.45 727.25 C 855.45 727.25 854.75 695.99 878.81 695.16 Z" fill="url(#linear-gradient-6)" fill-rule="nonzero" group-id="2,8" id="路径_62" node-id="33" stroke="none" target-height="69.053406" target-width="80.30347" target-x="854.7504" target-y="674.0171"></path></g><g node-id="105"><path d="M 143.60 748.44 C 143.60 748.44 182.04 773.35 194.03 737.63 C 205.68 714.74 218.14 720.57 218.14 720.57 C 218.14 720.57 204.23 714.18 192.76 733.19 C 158.15 716.73 143.60 748.44 143.60 748.44 Z" fill="url(#linearGradient1)" fill-rule="nonzero" group-id="2,9" id="路径_70" node-id="34" stroke="none" target-height="59.169495" target-width="74.540085" target-x="143.60043" target-y="714.1798"></path></g><g node-id="106"><path d="M 662.13 813.93 C 662.13 813.93 715.10 814.81 704.97 772.43 C 702.38 742.85 718.17 740.93 718.17 740.93 C 718.17 740.93 700.62 743.18 701.01 768.85 C 656.97 773.91 662.13 813.93 662.13 813.93 Z" fill="url(#linear-gradient-7)" fill-rule="nonzero" group-id="2,10" id="路径_71" node-id="35" stroke="none" target-height="73.871216" target-width="61.19983" target-x="656.97363" target-y="740.93384"></path></g><g node-id="107"><path d="M 440.79 537.78 C 440.79 555.76 426.21 570.33 408.23 570.33 C 390.25 570.33 375.68 555.76 375.68 537.78 C 375.68 519.80 390.25 505.22 408.23 505.22 C 426.21 505.22 440.79 519.80 440.79 537.78 Z" fill="#ffffff" fill-rule="nonzero" group-id="2,11" id="椭圆_26" node-id="36" stroke="none" target-height="65.109985" target-width="65.109985" target-x="375.67676" target-y="505.222"></path></g><g node-id="108"><path d="M 557.56 537.78 C 557.56 555.76 542.68 570.33 524.34 570.33 C 505.99 570.33 491.12 555.76 491.12 537.78 C 491.12 519.80 505.99 505.22 524.34 505.22 C 542.68 505.22 557.56 519.80 557.56 537.78 Z" fill="#ffffff" fill-rule="nonzero" group-id="2,12" id="椭圆_27" node-id="37" stroke="none" target-height="65.109985" target-width="66.44" target-x="491.1172" target-y="505.222"></path></g><g node-id="109"><path d="M 673.05 537.78 C 673.05 555.76 658.48 570.33 640.50 570.33 C 622.52 570.33 607.94 555.76 607.94 537.78 C 607.94 519.80 622.52 505.22 640.50 505.22 C 658.48 505.22 673.05 519.80 673.05 537.78 Z" fill="#ffffff" fill-rule="nonzero" group-id="2,13" id="椭圆_28" node-id="38" stroke="none" target-height="65.109985" target-width="65.109985" target-x="607.9409" target-y="505.222"></path></g><path d="M 162.22 257.00 C 143.15 257.00 125.95 245.56 118.57 227.98 C 111.19 210.40 115.09 190.11 128.45 176.50 C 141.82 162.90 162.04 158.65 179.75 165.71 C 179.66 164.60 179.62 163.48 179.61 162.35 C 179.64 145.30 189.92 129.94 205.66 123.40 C 221.41 116.86 239.54 120.42 251.63 132.44 C 263.73 144.45 267.42 162.56 260.99 178.35 C 276.32 169.20 295.75 170.65 309.55 181.99 C 323.34 193.33 328.54 212.10 322.53 228.92 C 316.52 245.74 300.61 256.97 282.75 257.00 Z" fill="url(#linear-gradient-9)" fill-rule="nonzero" group-id="2,14" id="联合_64" node-id="39" stroke="none" target-height="140.14395" target-width="217.34483" target-x="111.19429" target-y="116.85859"></path></g></svg>