<?xml version="1.0" standalone="no"?><!DOCTYPE svg PUBLIC "-//W3C//DTD SVG 1.1//EN" "http://www.w3.org/Graphics/SVG/1.1/DTD/svg11.dtd"><svg t="1788934252047" class="icon" viewBox="0 0 1024 1024" version="1.1" xmlns="http://www.w3.org/2000/svg" p-id="1276" xmlns:xlink="http://www.w3.org/1999/xlink" width="200" height="200"><path d="M711.669 205.3c-0.080-5.487 1.66-10.407 5.013-14.669 11.654-14.822 23.255-29.69 35.155-44.314 6.961-8.553 17.482-11.059 27.222-7.21 9.687 3.828 15.713 13.262 15.153 23.81-0.261 4.929-1.976 9.371-5.010 13.228-11.655 14.821-23.29 29.66-35.090 44.365-6.507 8.108-17.24 10.876-26.838 7.335-9.425-3.475-15.607-12.413-15.606-22.546z" fill="#D7192D" p-id="1277" data-spm-anchor-id="a313x.collections_detail.0.i2.5bcf3a81FWhrJO" class="selected"></path><path d="M129.619 538.979c11.734-0.052 21.012 7.022 23.898 17.741 2.858 10.619-1.49 21.977-11.384 26.923-17.671 8.835-35.499 17.389-53.545 25.429-11.75 5.235-25.201-0.579-30.521-12.161-5.333-11.61-0.932-25.34 10.676-31.107 17.265-8.577 34.793-16.631 52.214-24.895 2.931-1.389 6.037-2.019 8.662-1.929z" fill="#D7192D" p-id="1278" data-spm-anchor-id="a313x.collections_detail.0.i4.5bcf3a81FWhrJO" class="selected"></path><path d="M103.643 483.707c-8.792 0-17.584-0.009-26.376 0.002-11.779 0.014-20.33-7.777-20.591-18.781-0.251-10.534 8.107-19.19 19.5-19.511 18.373-0.52 36.757-0.83 55.14-0.897 11.317-0.040 19.81 8.43 19.877 19.111 0.067 10.703-8.244 18.907-19.743 19.147-9.265 0.194-18.537 0.039-27.806 0.039-0.001 0.297-0.001 0.593-0.001 0.891z" fill="#D7192D" p-id="1279" data-spm-anchor-id="a313x.collections_detail.0.i3.5bcf3a81FWhrJO" class="selected"></path><path d="M921.736 499.709c-8.789 0-17.576 0.007-26.365-0.001-11.555-0.011-20.287-8.152-20.443-19.040-0.155-10.9 8.334-19.106 20.058-19.321 17.9-0.327 35.798-0.688 53.701-0.894 11.965-0.138 20.679 8.057 20.662 19.148-0.017 10.85-8.602 19.041-20.278 19.173-9.11 0.104-18.222 0.020-27.334 0.020-0.001 0.306-0.001 0.61-0.001 0.914z" fill="#D7192D" p-id="1280" data-spm-anchor-id="a313x.collections_detail.0.i1.5bcf3a81FWhrJO" class="selected"></path><path d="M893.725 352.682c-4.149-28.132-19.393-48.71-44.224-62.274-21.486-11.736-44.955-15.717-68.995-16.867-24.003-1.149-47.842 1.147-71.52 4.961-3.037 0.489-5.003-0.067-7.352-1.776-57.988-42.191-122.871-63.438-194.543-63.943-25.522-0.255-50.708 2.451-75.353 8.831-110.437 28.595-187.457 95.664-230.279 201.484-11.462 28.324-17.796 58.001-20.407 88.497-1.888 22.047-1.799 44.017 0.993 65.958 0.322 2.534-0.587 4.218-1.998 6.037-5.871 7.572-11.918 15.022-17.442 22.841-20.475 28.986-37.948 59.372-42.067 95.545-3.804 33.413 6.577 61.073 34.243 81.148 20.672 15.001 44.731 20.324 69.565 22.524 24.929 2.211 49.738 0.259 74.454-3.404 5.093-0.755 9.877-2.342 15.327 1.668 49.424 36.371 105.058 56.651 166.053 62.129 32.31 2.901 64.441 0.87 96.082-6.439 97.642-22.553 170.99-77.648 219.431-165.366 21.591-39.096 33.544-81.366 37.632-125.778 1.905-20.708 2.026-41.491-0.684-62.183-0.654-4.992-0.086-9.255 3.84-12.968 2.64-2.497 4.639-5.681 6.863-8.604 17.843-23.436 33.72-48.004 43.333-76.117 6.201-18.137 9.877-36.719 7.046-55.903zM384.038 659.838c-31.005 0.040-56.419-25.259-56.607-56.354-0.189-31.143 25.433-56.745 56.715-56.674 31.134 0.070 56.244 25.319 56.23 56.542-0.013 31.171-25.222 56.445-56.338 56.485zM504.291 793.922c-23.477-0.098-42.266-18.971-42.238-42.429 0.028-23.444 18.987-42.435 42.318-42.39 23.269 0.045 42.359 19.193 42.344 42.471-0.016 23.28-19.217 42.445-42.424 42.349zM506.76 478.918c-46.758-0.171-84.308-37.911-84.18-84.603 0.13-46.898 38.034-84.592 84.927-84.456 46.487 0.136 84.327 38.181 84.268 84.724-0.058 46.778-38.090 84.505-85.015 84.335z" fill="#D7192D" p-id="1281" data-spm-anchor-id="a313x.collections_detail.0.i0.5bcf3a81FWhrJO" class="selected"></path><path d="M506.807 430.947c-20.157-0.037-36.412-16.494-36.255-36.707 0.157-20.207 16.585-36.517 36.669-36.404 20.348 0.115 36.699 16.675 36.583 37.054-0.114 19.944-16.684 36.094-36.997 36.057z" fill="#E85412" p-id="1282"></path><path d="M401.992 603.395c-0.034 9.858-8.040 17.94-17.89 18.058-9.892 0.119-18.362-8.353-18.258-18.263 0.104-9.891 8.134-17.92 17.99-17.993 10.109-0.074 18.193 8.027 18.157 18.198z" fill="#E85412" p-id="1283"></path><path d="M490.847 751.504c0.014-7.381 5.963-13.477 13.28-13.61 7.433-0.134 13.801 6.171 13.794 13.655-0.007 7.316-6.026 13.421-13.367 13.554-7.576 0.138-13.722-5.961-13.707-13.599z" fill="#E85412" p-id="1284"></path></svg>