<?xml version="1.0" standalone="no"?><!DOCTYPE svg PUBLIC "-//W3C//DTD SVG 1.1//EN" "http://www.w3.org/Graphics/SVG/1.1/DTD/svg11.dtd"><svg t="1789352092634" class="icon" viewBox="0 0 1024 1024" version="1.1" xmlns="http://www.w3.org/2000/svg" p-id="1939" xmlns:xlink="http://www.w3.org/1999/xlink" width="64" height="64"><path d="M772.693333 546.133333a196.266667 196.266667 0 1 1-194.133333 196.266667 195.413333 195.413333 0 0 1 194.133333-196.266667zM896 64a86.826667 86.826667 0 0 1 85.333333 87.253333v87.253334a87.253333 87.253333 0 0 1-72.32 85.333333v177.92a21.333333 21.333333 0 0 1-42.666666 1.706667v-177.706667H632.96v236.586667l-107.946667-42.666667-107.946666 42.666667V325.76H158.08v464.853333a76.16 76.16 0 0 0 69.12 79.36h294.186667a21.333333 21.333333 0 0 1 1.706666 42.666667H229.76a119.04 119.04 0 0 1-114.773333-119.893333v-469.333334a87.253333 87.253333 0 0 1-72.32-85.333333V151.253333A86.826667 86.826667 0 0 1 129.066667 64z m-123.306667 525.653333a152.746667 152.746667 0 1 0 151.04 152.746667 151.893333 151.893333 0 0 0-151.04-152.746667z m103.466667 100.693334a21.333333 21.333333 0 0 1 0 30.506666l-104.32 104.533334-2.346667 1.92-1.28 1.493333a21.333333 21.333333 0 0 1-30.933333 0L676.693333 768a21.333333 21.333333 0 0 1 0-30.72 21.333333 21.333333 0 0 1 30.933334 0l45.44 45.653333 92.586666-92.586666a21.333333 21.333333 0 0 1 30.506667 0zM589.653333 347.306667h-129.493333v150.613333l64-26.026667 64 26.026667zM896 106.666667H129.066667A42.666667 42.666667 0 0 0 85.333333 149.333333v89.386667a42.666667 42.666667 0 0 0 41.173334 42.666667H896a42.666667 42.666667 0 0 0 42.666667-41.386667V151.253333a42.666667 42.666667 0 0 0-41.173334-42.666666z" fill="#7F7F7F" p-id="1940"></path></svg>